<?xml version="1.0" encoding="UTF-8"?>
<svg version="1.1" viewBox="0 0 1916 1656" width="1280" height="1280" xmlns="http://www.w3.org/2000/svg">
<path transform="translate(0)" d="m0 0h1916v1656h-1916z" fill="#FEFEFD"/>
<path transform="translate(1478,391)" d="m0 0h26l22 4 18 7 14 9 10 9 10 11 7 11 8 16 6 16 4 16 2 13 1 12v352l-2 20-4 19-6 17-8 16-6 9-9 11-8 8-13 9-16 8-14 4-11 2-11 1h-19l-19-3-16-5-15-8-14-11-11-12-9-14-9-19-6-19-3-18-1-11v-357l3-26 6-21 8-18 9-16 11-13 10-9 11-7 15-7 15-4z" fill="#1F1D24"/>
<path transform="translate(911,590)" d="m0 0h105l2 3 10 68 19 125 50 332 10 66v6h-85l-10-72-6-44-1-5-84-1-7 54-9 66-1 2h-85l7-49 12-79 21-139 17-112 17-113 13-86 3-21z" fill="#1F1D24"/>
<path transform="translate(347,397)" d="m0 0 103 1 2 7 13 87 23 152 50 331 1 9h-84l-15-112-1-6h-82l-2 11-13 97-2 10h-83l1-13 9-59 31-204 14-93 16-107 11-72 5-34 1-4z" fill="#1F1D24"/>
<path transform="translate(675,391)" d="m0 0h27l18 3 16 6 14 7 14 11 10 11 10 15 8 17 6 18 4 19 1 11v99l-5 1-80-1-1-2v-63l-1-37-4-14-6-10-5-4-7-2h-11l-9 4-7 8-4 9-2 9-1 14v349l2 18 4 12 6 8 5 4 4 2h13l10-4 6-7 5-15 1-4 1-17v-69l-1-31-33-1v-72h120v291h-51l-8-21-2-5-7 6-8 8-16 10-15 6-9 2-9 1h-15l-17-3-12-4-10-5-13-10-12-12-10-15-7-16-5-17-3-18v-385l3-19 5-19 9-20 8-14 8-10 11-11 10-7 16-8 17-5z" fill="#1F1D24"/>
<path transform="translate(1146,398)" d="m0 0h85l1 479 1 27h112l1 1v79l-199 1-1-1z" fill="#1F1D24"/>
<path transform="translate(266,1032)" d="m0 0h552v78l-1 1h-551z" fill="#1F1D24"/>
<path transform="translate(1114,1032)" d="m0 0h531v24l-1 55h-529l-1-1z" fill="#1F1D24"/>
<path transform="translate(1485,475)" d="m0 0h12l8 3 5 5 5 8 4 13 1 11v353l-2 14-4 11-6 9-8 4-4 1h-10l-9-4-5-4-5-8-4-12-1-7-1-138v-105l1-120 4-16 6-10 6-5z" fill="#FEFEFD"/>
<path transform="translate(961,770)" d="m0 0 4 1 2 4 6 42 19 141 2 16-1 1h-60l1-12 23-172 3-19z" fill="#FEFEFD"/>
<path transform="translate(396,573)" d="m0 0 4 1 2 8 10 72 15 112v8h-58l-1-1 1-10 14-106 10-72 2-11z" fill="#FEFEFD"/>
</svg>
